# xmcd
#
# Track frame offsets:
#  150
#  21850
#  35173
#  54456
#  70336
#  85645
#  107752
#  127023
#  150947
#  166944
#  182580
#  200689
#  216676
#  234782
#
# Disc length: 3389 seconds
#
# Revision: 0
# Processed by: cddbd v1.5.2PL0 Copyright (c) Steve Scherf et al.
# Submitted via: Collectorz.com_Music_Collector 6.11
#
DISCID=bd0d3b0e
DTITLE=Various Artist - Club Hits 2007 [CD1)
DYEAR=2006
DGENRE=Dance
TTITLE0=Sander Kleinenberg - This Is Miami
TTITLE1=Kaiser Souzai - Girl, You'll Be A Woman Soon
TTITLE2=Sharam - PATT (Party All The Time)
TTITLE3=Caramel Club - Mama Say Mama Sa (Delano and Crockett's Bootie Mix)
TTITLE4=Outwork feat. Mr. Gee - Elektro [The Cube Guys Delano Mix]
TTITLE5=Mish Mash - Speechless (Seamus Haji Big Love Remix)
TTITLE6=Bodyrox - Yeah Yeah (D. Ramirez Mix)
TTITLE7=Jaydee - Plastic Dreams (Switch Remix)
TTITLE8=Spiller - Jumbo
TTITLE9=Antoine Clamaran vs. Philippe B. - In My House (A. Clamaran Mix)
TTITLE10=Fedde Le Grand - Put Your Hands Up For Detroit
TTITLE11=Yello - Oh Yeah 'Oh Six (Booka Shade Remix)
TTITLE12=Rhythm Drivers - The Conversation
TTITLE13=David Guetta vs. The Egg - Love Don't Let Me Go (Walking Away)
EXTD=
EXTT0=
EXTT1=
EXTT2=
EXTT3=
EXTT4=
EXTT5=
EXTT6=
EXTT7=
EXTT8=
EXTT9=
EXTT10=
EXTT11=
EXTT12=
EXTT13=
PLAYORDER=
